<?xml version="1.0" encoding="UTF-8"?>
<svg width="18px" height="22px" viewBox="0 0 18 22" version="1.1" xmlns="http://www.w3.org/2000/svg" xmlns:xlink="http://www.w3.org/1999/xlink">
    <!-- Generator: Sketch 49.3 (51167) - http://www.bohemiancoding.com/sketch -->
    <title>https - material</title>
    <desc>Created with Sketch.</desc>
    <defs></defs>
    <g id="👌-Symbols" stroke="none" stroke-width="1" fill="none" fill-rule="evenodd">
        <g id="icon/password/dark" transform="translate(-15.000000, -12.000000)" fill="#5B5B5F">
            <path d="M27.096,19.616 L27.096,17.6 C27.096,17.0559973 26.9560014,16.5440024 26.676,16.064 C26.3959986,15.5839976 26.0160024,15.2040014 25.536,14.924 C25.0559976,14.6439986 24.5440027,14.504 24,14.504 C23.4559973,14.504 22.9440024,14.6439986 22.464,14.924 C21.9839976,15.2040014 21.6040014,15.5839976 21.324,16.064 C21.0439986,16.5440024 20.904,17.0559973 20.904,17.6 L20.904,19.616 L27.096,19.616 Z M24,28.616 C24.5440027,28.616 25.015998,28.416002 25.416,28.016 C25.816002,27.615998 26.016,27.1440027 26.016,26.6 C26.016,26.0559973 25.816002,25.584002 25.416,25.184 C25.015998,24.783998 24.5440027,24.584 24,24.584 C23.4559973,24.584 22.984002,24.783998 22.584,25.184 C22.183998,25.584002 21.984,26.0559973 21.984,26.6 C21.984,27.1440027 22.183998,27.615998 22.584,28.016 C22.984002,28.416002 23.4559973,28.616 24,28.616 Z M30,19.616 C30.5440027,19.616 31.015998,19.8079981 31.416,20.192 C31.816002,20.5760019 32.016,21.0399973 32.016,21.584 L32.016,31.616 C32.016,32.1600027 31.816002,32.6239981 31.416,33.008 C31.015998,33.3920019 30.5440027,33.584 30,33.584 L18,33.584 C17.4559973,33.584 16.984002,33.3920019 16.584,33.008 C16.183998,32.6239981 15.984,32.1600027 15.984,31.616 L15.984,21.584 C15.984,21.0399973 16.183998,20.5760019 16.584,20.192 C16.984002,19.8079981 17.4559973,19.616 18,19.616 L18.984,19.616 L18.984,17.6 C18.984,16.6879954 19.2079978,15.8480038 19.656,15.08 C20.1040022,14.3119962 20.7119962,13.7040022 21.48,13.256 C22.2480038,12.8079978 23.0879954,12.584 24,12.584 C24.9120046,12.584 25.7519962,12.8079978 26.52,13.256 C27.2880038,13.7040022 27.8959978,14.3119962 28.344,15.08 C28.7920022,15.8480038 29.016,16.6879954 29.016,17.6 L29.016,19.616 L30,19.616 Z" id="https---material"></path>
        </g>
    </g>
</svg>