<?xml version="1.0" encoding="UTF-8"?>
<svg width="20px" height="20px" viewBox="0 0 20 20" version="1.1" xmlns="http://www.w3.org/2000/svg" xmlns:xlink="http://www.w3.org/1999/xlink">
    <!-- Generator: Sketch 49.3 (51167) - http://www.bohemiancoding.com/sketch -->
    <title>Info Circle - FontAwesome</title>
    <desc>Created with Sketch.</desc>
    <defs></defs>
    <g id="✅12-notificaciones" stroke="none" stroke-width="1" fill="none" fill-rule="evenodd">
        <g id="Notificaciones" transform="translate(-1252.000000, -1538.000000)" fill="#58595B">
            <g id="info" transform="translate(1145.000000, 1502.000000)">
                <path d="M121,52.5833333 L121,50.5 C121,50.265625 120.808594,50.0833333 120.5625,50.0833333 L119.25,50.0833333 L119.25,43.4166667 C119.25,43.1822917 119.058594,43 118.8125,43 L114.4375,43 C114.191406,43 114,43.1822917 114,43.4166667 L114,45.5 C114,45.734375 114.191406,45.9166667 114.4375,45.9166667 L115.75,45.9166667 L115.75,50.0833333 L114.4375,50.0833333 C114.191406,50.0833333 114,50.265625 114,50.5 L114,52.5833333 C114,52.8177083 114.191406,53 114.4375,53 L120.5625,53 C120.808594,53 121,52.8177083 121,52.5833333 Z M118,40.5714286 L118,38.4285714 C118,38.1875 117.835938,38 117.625,38 L115.375,38 C115.164062,38 115,38.1875 115,38.4285714 L115,40.5714286 C115,40.8125 115.164062,41 115.375,41 L117.625,41 C117.835938,41 118,40.8125 118,40.5714286 Z M127,46 C127,51.5208333 122.520833,56 117,56 C111.479167,56 107,51.5208333 107,46 C107,40.4791667 111.479167,36 117,36 C122.520833,36 127,40.4791667 127,46 Z" id="Info-Circle---FontAwesome"></path>
            </g>
        </g>
    </g>
</svg>