<?xml version="1.0" encoding="UTF-8"?>
<svg width="409px" height="130px" viewBox="0 0 409 130" version="1.1" xmlns="http://www.w3.org/2000/svg" xmlns:xlink="http://www.w3.org/1999/xlink">
    <!-- Generator: Sketch 49.3 (51167) - http://www.bohemiancoding.com/sketch -->
    <title>logo</title>
    <desc>Created with Sketch.</desc>
    <defs>
        <polygon id="path-1" points="1.914 0.908 106.415759 0.908 106.415759 86.7241096 1.914 86.7241096"></polygon>
        <polygon id="path-3" points="1.9658 0.2124 49.9298 0.2124 49.9298 50 1.9658 50"></polygon>
        <polygon id="path-5" points="0.1824 0.2146 50.8344 0.2146 50.8344 50 0.1824 50"></polygon>
    </defs>
    <g id="👌-Symbols" stroke="none" stroke-width="1" fill="none" fill-rule="evenodd">
        <g id="Investbot-logo" transform="translate(-85.000000, -27.000000)">
            <g id="logo" transform="translate(85.000000, 26.000000)">
                <g id="Group-3" transform="translate(302.000000, 0.092200)">
                    <mask id="mask-2" fill="white">
                        <use xlink:href="#path-1"></use>
                    </mask>
                    <g id="Clip-2"></g>
                    <path d="M105.992,58.2596 L105.954,58.1496 C105.954,58.1496 101.29,45.2676 101.26,45.2296 C100.984,44.5436 100.646,43.9696 100.304,43.4456 C102.09,42.9696 103.52,41.9816 104.33,40.5116 C104.716,39.8216 105.058,38.8716 105.058,37.6496 C105.058,36.8136 104.892,35.8536 104.45,34.7776 L100.28,24.1816 C99.13,21.8736 97.66,19.9496 94.408,19.2856 C95.03,17.6476 94.842,15.7676 93.804,14.1236 L94.094,14.6756 L90.334,5.9596 L90.2,5.7496 C88.138,2.2056 85.484,1.7836 83.744,1.5096 C77.954,0.5936 65.232,0.7356 54.758,1.8516 C49.86,2.2576 44.566,3.0136 38.09,4.2196 C33.262,5.1876 26.906,6.5456 20.064,8.5556 C17.668,9.3076 16.042,10.5656 15.154,12.3136 C14.798,13.0076 14.474,13.9976 14.474,15.2476 C14.474,16.0136 14.602,16.8796 14.922,17.8356 C14.926,17.8356 18.258,27.4536 18.258,27.4536 C18.51,28.1596 19.136,29.5076 20.36,30.6136 C17.356,31.6816 8.166,34.8956 8.166,34.8956 C4.338,36.4176 1.914,39.7276 1.914,43.1556 C1.914,43.6796 1.97,44.1896 2.084,44.7056 C2.118,44.7936 5.668,59.1336 5.668,59.1336 C6.308,61.3096 7.704,62.9676 9.628,63.9316 C11.802,65.0116 14.478,65.0796 16.97,64.1316 C22.656,61.9796 28.856,59.8836 35.232,57.9516 C34.796,59.5636 34.874,61.3096 35.502,63.0536 C35.502,63.0536 41.668,80.5196 41.698,80.6256 C43.33,85.3656 48.194,87.8436 52.88,86.2336 L82.41,75.1516 L97.148,69.4936 L101.766,67.6776 C105.668,66.0896 107.25,62.5636 105.992,58.2596" id="Fill-1" fill="#FFFFFF" mask="url(#mask-2)"></path>
                </g>
                <path d="M388.6852,7.8284 C387.5512,5.9084 386.4492,5.7464 384.9952,5.5184 C379.6972,4.6744 367.2952,4.7864 356.9152,5.8944 C351.6932,6.3324 346.3812,7.1444 340.5332,8.2244 C334.7512,9.3744 328.9192,10.6944 322.8252,12.4884 C320.7832,13.1384 319.5392,14.3104 320.3372,16.6664 C321.4152,19.8544 322.3792,22.5584 323.6852,26.3124 C324.5292,28.7904 326.6852,28.8104 328.9592,28.1224 C335.7532,26.1124 342.2272,24.5604 348.5532,23.3324 C354.9132,22.0444 360.5532,21.2604 365.9512,20.5324 C376.7512,19.2224 386.0352,18.9424 391.2732,18.8724 C392.4492,18.8604 393.2532,17.7724 392.3692,16.3704 L388.6852,7.8284 Z" id="Fill-4" fill="#063E85"></path>
                <path d="M398.5388,25.7814 C397.7048,24.1734 396.9808,23.2194 393.9728,23.1534 C385.6088,22.9894 375.8848,23.6054 361.1988,25.7814 C353.8508,26.8634 345.9168,28.3954 337.2688,30.5214 C332.9168,31.6774 328.6248,32.7614 324.2468,34.2514 C319.6668,35.6674 315.4648,37.1894 311.1928,38.8434 C308.6308,39.8414 307.1428,42.1314 307.5768,44.0754 C308.6648,48.6134 309.8028,53.1794 311.1488,58.4274 C311.7988,60.7114 314.4028,61.7494 317.1748,60.6974 C326.7228,57.0674 336.7268,53.9374 346.0948,51.3974 C355.4968,48.9394 363.5108,47.0814 370.8708,45.4574 C385.4668,42.2994 393.1288,41.2714 400.9688,39.8934 C402.7468,39.5894 403.5268,38.4194 402.7388,36.4874 L398.5388,25.7814 Z" id="Fill-6" fill="#FFD300"></path>
                <path d="M404.1482,59.672 C404.7142,61.62 404.5462,63.37 402.2422,64.298 C399.4882,65.414 397.4562,66.142 394.0702,67.466 C392.3402,68.128 390.6642,68.794 388.7662,69.522 C386.9042,70.216 384.9762,70.99 382.8742,71.772 C374.5402,74.964 365.0842,78.518 353.2662,82.896 C350.7262,83.762 348.1582,82.43 347.2182,79.718 C345.2822,73.526 343.0942,67.516 340.9462,61.926 C340.0462,59.374 341.3562,57.05 343.8562,56.298 C349.8582,54.612 355.2082,53.274 360.4342,52.006 C365.6062,50.726 370.1862,49.644 374.5362,48.688 C383.2802,46.694 388.8882,45.506 394.8582,44.442 C397.7482,43.944 398.7762,45.184 399.5522,47.02 C401.2542,51.156 402.7462,55.318 404.1482,59.672" id="Fill-8" fill="#E30520"></path>
                <path d="M331.6676,80.9982 L328.4816,80.9982 L329.1956,78.4482 C330.0236,75.3722 329.7456,72.8162 328.3916,71.0502 C327.2396,69.5462 325.4116,68.7502 323.1056,68.7502 C319.2096,68.7502 316.1616,71.4642 314.9596,76.0062 L313.5956,80.9982 L311.8836,80.9982 C308.3556,80.9982 305.5896,83.8362 305.5896,87.4622 C305.5896,90.8462 307.8196,92.9542 310.1796,93.6922 L304.8476,113.6242 C304.3876,115.4582 303.9636,117.4522 303.9636,119.5802 C303.9636,124.3622 307.3256,129.4682 316.7656,129.4682 C319.2636,129.4682 321.9596,129.3042 324.7456,128.1122 C327.2856,127.0062 328.6256,124.8862 328.6256,121.9782 C328.6256,118.4682 326.4596,116.2002 323.1056,116.2002 L322.0756,116.2002 C319.7176,116.2002 319.7176,114.8122 319.7176,114.3562 C319.7176,114.0022 319.8376,113.2982 320.0316,112.5322 L324.9916,93.9262 L331.6676,93.9262 C335.1976,93.9262 337.9596,91.0862 337.9596,87.4622 C337.9596,83.8362 335.1976,80.9982 331.6676,80.9982" id="Fill-10" fill="#063E85"></path>
                <path d="M26.3396,68.7208 C25.1956,67.2268 23.3756,66.4348 21.0796,66.4348 C17.2376,66.4348 14.1196,69.1928 12.9416,73.6328 L0.4576,120.0128 C-0.3564,123.0268 -0.0804,125.5448 1.2536,127.2868 C2.3996,128.7808 4.2176,129.5728 6.5156,129.5728 C10.3556,129.5728 13.4736,126.8128 14.6516,122.3728 L27.1356,75.9948 C27.9496,72.9788 27.6736,70.4628 26.3396,68.7208" id="Fill-12" fill="#063E85"></path>
                <path d="M54.8054,80.3068 C49.6134,80.3068 45.5334,82.9528 42.7014,85.3208 C42.1534,82.8248 40.0994,80.6528 36.2534,80.6528 C32.1854,80.6528 29.1554,83.2768 27.9434,87.8508 L19.3614,120.0128 C18.5374,123.0588 18.8074,125.5868 20.1354,127.3228 C21.2634,128.7948 23.0594,129.5728 25.3294,129.5728 C29.1754,129.5728 32.1854,126.8808 33.3814,122.3728 L38.7574,102.4328 C40.2554,96.7888 43.5834,93.6808 48.1294,93.6808 C50.7354,93.6808 53.8394,94.5528 53.8394,98.6948 C53.8394,99.7368 53.5934,101.4108 53.2574,102.6748 L48.5754,120.0128 C47.7534,123.0608 48.0214,125.5868 49.3514,127.3228 C50.4774,128.7948 52.2734,129.5728 54.5454,129.5728 C58.3914,129.5728 61.3994,126.8808 62.5954,122.3708 L67.6254,103.5588 C68.4074,100.5988 69.2074,97.2148 69.2074,94.5348 C69.2074,85.8928 63.5554,80.3068 54.8054,80.3068" id="Fill-14" fill="#063E85"></path>
                <path d="M116.0232,90.26 C116.6992,89.294 117.1912,87.664 117.1912,86.386 C117.1912,82.85 114.7952,80.652 110.9372,80.652 C107.8412,80.652 105.4052,82.122 103.4912,85.142 L87.3352,110.718 L84.9392,86.854 C84.6532,83.03 81.8252,80.652 77.5612,80.652 C73.0012,80.652 70.1812,84.17 70.1812,87.428 C70.1812,88.302 70.2632,89.642 70.4492,90.656 L75.5632,123.424 C76.2192,127.732 78.6692,129.918 82.8492,129.918 L83.1952,129.918 C87.6912,129.918 90.1792,127.646 92.5332,124.238 L116.0232,90.26 Z" id="Fill-16" fill="#063E85"></path>
                <g id="Group-20" transform="translate(110.000000, 80.092200)">
                    <mask id="mask-4" fill="white">
                        <use xlink:href="#path-3"></use>
                    </mask>
                    <g id="Clip-19"></g>
                    <path d="M36.8278,34.9764 C35.5598,34.9764 34.1038,35.4144 32.5058,36.2744 L32.4998,36.2784 C31.5518,36.7984 28.9878,38.0124 25.6438,38.0124 C19.8218,38.0124 16.5298,35.4264 15.8518,30.3204 L42.3758,30.3204 C46.0738,30.3204 48.4338,28.1824 49.3938,23.9584 C49.7338,22.4264 49.9298,20.6304 49.9298,19.0384 C49.9298,7.7784 42.0178,0.2124 30.2398,0.2124 C22.3378,0.2124 15.0418,3.4324 9.6938,9.2744 C4.7818,14.6384 1.9658,21.7044 1.9658,28.6624 C1.9658,41.8224 10.4738,50.0004 24.1718,50.0004 C30.0498,50.0004 35.3998,48.5204 39.6378,45.7244 C41.3878,44.5944 42.4738,42.6724 42.4738,40.7104 C42.4738,37.4424 40.0478,34.9764 36.8278,34.9764 M29.1978,12.2024 C35.2218,12.2024 36.1218,16.0504 36.1218,18.3464 C36.1218,19.1344 36.0298,19.9304 35.8538,20.6744 L17.2378,20.6744 C19.5238,15.4224 24.0278,12.2024 29.1978,12.2024" id="Fill-18" fill="#063E85" mask="url(#mask-4)"></path>
                </g>
                <path d="M181.8338,99.1798 C178.2018,97.5638 176.0978,96.3578 176.0978,94.9698 C176.0978,92.9398 177.7058,91.7758 180.5078,91.7758 C183.6458,91.7758 186.7518,92.8118 190.0078,94.9578 C191.3278,95.8058 192.4858,96.3698 193.8578,96.3698 C197.2578,96.3698 200.0238,93.5258 200.0238,90.0278 C200.0238,87.7198 198.8518,85.8258 196.6458,84.5658 C192.1638,81.8978 186.4878,80.3058 181.4598,80.3058 C170.0718,80.3058 162.1158,87.2998 162.1158,97.3078 C162.1158,105.5878 169.5278,108.7678 176.0658,111.5678 C179.0358,112.8538 181.0138,113.9718 181.0138,115.2538 C181.0138,118.1858 177.9798,118.6238 176.1718,118.6238 C171.8778,118.6238 168.0778,117.2118 164.2098,114.1778 C163.5558,113.6678 162.1778,112.8138 160.3078,112.8138 C157.0038,112.8138 154.3138,115.6218 154.3138,119.0678 C154.3138,121.1798 155.1998,122.8878 156.9478,124.1478 C162.1758,127.9238 168.8358,130.0898 175.2198,130.0898 C187.0478,130.0898 194.9958,123.2218 194.9958,112.9998 C194.9958,105.0058 187.3878,101.6378 181.8338,99.1798" id="Fill-21" fill="#063E85"></path>
                <path d="M256.5906,82.5724 C256.5906,78.0744 254.8026,74.2504 251.4206,71.5124 C247.6826,68.4884 242.2726,66.9564 235.3386,66.9564 L217.3946,66.9564 C213.5526,66.9564 210.4346,69.7144 209.2566,74.1544 L197.1206,119.4924 C196.3066,122.5084 196.5806,125.0244 197.9166,126.7664 C199.0606,128.2604 200.8806,129.0524 203.1766,129.0524 L225.2826,129.0524 C241.8146,129.0524 252.0826,121.7064 252.0826,109.8804 C252.0826,104.5304 249.7106,100.5604 244.8406,97.7864 C252.3366,95.5064 256.5906,90.0464 256.5906,82.5724 Z M231.6106,91.4884 L219.0906,91.4884 L222.0986,80.0704 L234.1246,80.0704 C239.0926,80.0704 241.8286,81.7604 241.8286,84.8264 C241.8286,89.2484 238.3906,91.4884 231.6106,91.4884 Z M229.7906,103.9984 C232.6346,103.9984 237.4066,104.6484 237.4066,109.0124 C237.4066,113.2804 233.5246,115.9364 227.2766,115.9364 L212.5046,115.9364 L215.6826,103.9984 L229.7906,103.9984 Z" id="Fill-23" fill="#063E85"></path>
                <g id="Group-27" transform="translate(254.000000, 80.092200)">
                    <mask id="mask-6" fill="white">
                        <use xlink:href="#path-5"></use>
                    </mask>
                    <g id="Clip-26"></g>
                    <path d="M27.7624,0.2146 C20.4724,0.2146 13.5344,3.2146 8.2284,8.6646 C3.1144,13.9146 0.1824,20.8866 0.1824,27.7946 C0.1824,41.0766 9.4544,50.0006 23.2544,50.0006 C30.5464,50.0006 37.4824,46.9986 42.7904,41.5506 C47.9024,36.3006 50.8344,29.3286 50.8344,22.4206 C50.8344,9.1386 41.5624,0.2146 27.7624,0.2146 M23.8624,37.3186 C18.0064,37.3186 14.5104,33.6286 14.5104,27.4466 C14.5104,18.4306 21.8764,12.8966 27.1564,12.8966 C33.0104,12.8966 36.5064,16.5866 36.5064,22.7646 C36.5064,31.7806 29.1404,37.3186 23.8624,37.3186" id="Fill-25" fill="#063E85" mask="url(#mask-6)"></path>
                </g>
                <path d="M331.9158,81.172 L328.4238,81.172 L329.2158,78.334 C330.0398,75.29 329.7698,72.762 328.4418,71.026 C327.3138,69.552 325.5178,68.778 323.2478,68.778 C319.4018,68.778 316.3938,71.466 315.1958,75.972 L313.7778,81.172 L311.8898,81.172 C308.4318,81.172 305.7238,83.96 305.7238,87.514 C305.7238,90.922 308.0278,93.012 310.4098,93.682 L304.9638,114.044 C304.5018,115.888 304.0758,117.89 304.0758,120.024 C304.0758,126.072 308.9638,129.83 316.8318,129.83 C319.3378,129.83 322.0418,129.666 324.8278,128.472 C327.3178,127.39 328.6338,125.306 328.6338,122.452 C328.6338,119.02 326.5198,116.802 323.2478,116.802 L322.2078,116.802 C320.4898,116.802 319.6178,116.108 319.6178,114.734 C319.6178,114.362 319.7438,113.63 319.9418,112.836 L325.0018,93.856 L331.9158,93.856 C335.3738,93.856 338.0838,91.068 338.0838,87.514 C338.0838,83.96 335.3738,81.172 331.9158,81.172" id="Fill-28" fill="#063E85"></path>
            </g>
        </g>
    </g>
</svg>