<?xml version="1.0" encoding="UTF-8"?>
<svg width="20px" height="19px" viewBox="0 0 20 19" version="1.1" xmlns="http://www.w3.org/2000/svg" xmlns:xlink="http://www.w3.org/1999/xlink">
    <!-- Generator: Sketch 49.3 (51167) - http://www.bohemiancoding.com/sketch -->
    <title>Exclamation Triangle - FontAwesome</title>
    <desc>Created with Sketch.</desc>
    <defs></defs>
    <g id="✅12-notificaciones" stroke="none" stroke-width="1" fill="none" fill-rule="evenodd">
        <g id="Notificaciones" transform="translate(-207.000000, -1537.000000)" fill="#58595B">
            <g id="alerta" transform="translate(70.000000, 1502.000000)">
                <path d="M148.428741,50.7001202 L148.428741,48.530649 C148.428741,48.3251202 148.272472,48.1538462 148.071556,48.1538462 L145.928444,48.1538462 C145.727528,48.1538462 145.571259,48.3251202 145.571259,48.530649 L145.571259,50.7001202 C145.571259,50.905649 145.727528,51.0769231 145.928444,51.0769231 L148.071556,51.0769231 C148.272472,51.0769231 148.428741,50.905649 148.428741,50.7001202 Z M148.406417,46.4296875 L148.607333,41.1887019 C148.607333,41.1201923 148.573847,41.0288462 148.495713,40.9717548 C148.428741,40.9146635 148.328283,40.8461538 148.227824,40.8461538 L145.772176,40.8461538 C145.671717,40.8461538 145.571259,40.9146635 145.504287,40.9717548 C145.426153,41.0288462 145.392667,41.1430288 145.392667,41.2115385 L145.582421,46.4296875 C145.582421,46.578125 145.749852,46.6923077 145.96193,46.6923077 L148.026907,46.6923077 C148.227824,46.6923077 148.395255,46.578125 148.406417,46.4296875 Z M148.250148,35.765024 L156.822593,51.8419471 C157.068158,52.2872596 157.056996,52.8353365 156.800269,53.280649 C156.543542,53.7259615 156.074737,54 155.572445,54 L138.427555,54 C137.925263,54 137.456458,53.7259615 137.199731,53.280649 C136.943004,52.8353365 136.931842,52.2872596 137.177407,51.8419471 L145.749852,35.765024 C145.995417,35.296875 146.475384,35 147,35 C147.524616,35 148.004583,35.296875 148.250148,35.765024 Z" id="Exclamation-Triangle---FontAwesome"></path>
            </g>
        </g>
    </g>
</svg>