<?xml version="1.0" encoding="UTF-8"?>
<svg width="19px" height="19px" viewBox="0 0 19 19" version="1.1" xmlns="http://www.w3.org/2000/svg" xmlns:xlink="http://www.w3.org/1999/xlink">
    <!-- Generator: Sketch 49.3 (51167) - http://www.bohemiancoding.com/sketch -->
    <title>Times Circle - FontAwesome</title>
    <desc>Created with Sketch.</desc>
    <defs></defs>
    <g id="✅12-notificaciones" stroke="none" stroke-width="1" fill="none" fill-rule="evenodd">
        <g id="Notificaciones" transform="translate(-747.000000, -1538.000000)" fill="#58595B">
            <g id="error" transform="translate(600.000000, 1502.000000)">
                <path d="M161.212891,48.2955729 C161.212891,48.0852865 161.126302,47.8873698 160.977865,47.7389323 L158.738932,45.5 L160.977865,43.2610677 C161.126302,43.1126302 161.212891,42.9147135 161.212891,42.7044271 C161.212891,42.4941406 161.126302,42.2838542 160.977865,42.1354167 L159.864583,41.0221354 C159.716146,40.8736979 159.505859,40.7871094 159.295573,40.7871094 C159.085286,40.7871094 158.88737,40.8736979 158.738932,41.0221354 L156.5,43.2610677 L154.261068,41.0221354 C154.11263,40.8736979 153.914714,40.7871094 153.704427,40.7871094 C153.494141,40.7871094 153.283854,40.8736979 153.135417,41.0221354 L152.022135,42.1354167 C151.873698,42.2838542 151.787109,42.4941406 151.787109,42.7044271 C151.787109,42.9147135 151.873698,43.1126302 152.022135,43.2610677 L154.261068,45.5 L152.022135,47.7389323 C151.873698,47.8873698 151.787109,48.0852865 151.787109,48.2955729 C151.787109,48.5058594 151.873698,48.7161458 152.022135,48.8645833 L153.135417,49.9778646 C153.283854,50.1263021 153.494141,50.2128906 153.704427,50.2128906 C153.914714,50.2128906 154.11263,50.1263021 154.261068,49.9778646 L156.5,47.7389323 L158.738932,49.9778646 C158.88737,50.1263021 159.085286,50.2128906 159.295573,50.2128906 C159.505859,50.2128906 159.716146,50.1263021 159.864583,49.9778646 L160.977865,48.8645833 C161.126302,48.7161458 161.212891,48.5058594 161.212891,48.2955729 Z M166,45.5 C166,50.7447917 161.744792,55 156.5,55 C151.255208,55 147,50.7447917 147,45.5 C147,40.2552083 151.255208,36 156.5,36 C161.744792,36 166,40.2552083 166,45.5 Z" id="Times-Circle---FontAwesome"></path>
            </g>
        </g>
    </g>
</svg>