<?xml version="1.0" encoding="UTF-8"?>
<svg width="263px" height="335px" viewBox="0 0 263 335" version="1.1" xmlns="http://www.w3.org/2000/svg" xmlns:xlink="http://www.w3.org/1999/xlink">
    <!-- Generator: Sketch 49.3 (51167) - http://www.bohemiancoding.com/sketch -->
    <title>https - material</title>
    <desc>Created with Sketch.</desc>
    <defs></defs>
    <g id="✅-08-token" stroke="none" stroke-width="1" fill="none" fill-rule="evenodd">
        <g id="Token---Large-Device-Desktops" transform="translate(0.000000, -659.000000)" fill="#F2F2F2">
            <path d="M181.061377,776.2 L181.061377,742.6 C181.061377,733.533288 178.729814,725.00004 174.066617,717 C169.40342,708.99996 163.07489,702.66669 155.080838,698 C147.086786,693.33331 138.559926,691 129.5,691 C120.440074,691 111.913214,693.33331 103.919162,698 C95.9251097,702.66669 89.5965802,708.99996 84.9333832,717 C80.2701863,725.00004 77.9386228,733.533288 77.9386228,742.6 L77.9386228,776.2 L181.061377,776.2 Z M129.5,926.2 C138.559926,926.2 146.420625,922.8667 153.082335,916.2 C159.744045,909.5333 163.07485,901.666712 163.07485,892.6 C163.07485,883.533288 159.744045,875.6667 153.082335,869 C146.420625,862.3333 138.559926,859 129.5,859 C120.440074,859 112.579375,862.3333 105.917665,869 C99.2559547,875.6667 95.9251497,883.533288 95.9251497,892.6 C95.9251497,901.666712 99.2559547,909.5333 105.917665,916.2 C112.579375,922.8667 120.440074,926.2 129.5,926.2 Z M229.42515,776.2 C238.485075,776.2 246.345775,779.399968 253.007485,785.8 C259.669195,792.200032 263,799.933288 263,809 L263,976.2 C263,985.266712 259.669195,992.999968 253.007485,999.4 C246.345775,1005.80003 238.485075,1009 229.42515,1009 L29.5748503,1009 C20.5149248,1009 12.6542249,1005.80003 5.99251497,999.4 C-0.669194985,992.999968 -4,985.266712 -4,976.2 L-4,809 C-4,799.933288 -0.669194985,792.200032 5.99251497,785.8 C12.6542249,779.399968 20.5149248,776.2 29.5748503,776.2 L45.9625749,776.2 L45.9625749,742.6 C45.9625749,727.399924 49.6930765,713.400064 57.1541916,700.6 C64.6153068,687.799936 74.740954,677.666704 87.5314371,670.2 C100.32192,662.733296 114.311301,659 129.5,659 C144.688699,659 158.67808,662.733296 171.468563,670.2 C184.259046,677.666704 194.384693,687.799936 201.845808,700.6 C209.306924,713.400064 213.037425,727.399924 213.037425,742.6 L213.037425,776.2 L229.42515,776.2 Z" id="https---material"></path>
        </g>
    </g>
</svg>