<?xml version="1.0" encoding="UTF-8"?>
<svg width="20px" height="15px" viewBox="0 0 20 15" version="1.1" xmlns="http://www.w3.org/2000/svg" xmlns:xlink="http://www.w3.org/1999/xlink">
    <!-- Generator: Sketch 49.3 (51167) - http://www.bohemiancoding.com/sketch -->
    <title>eye-slash - FontAwesome</title>
    <desc>Created with Sketch.</desc>
    <defs></defs>
    <g id="👌-Symbols" stroke="none" stroke-width="1" fill="none" fill-rule="evenodd">
        <g id="icon/eye-closed/dark" transform="translate(-14.000000, -16.000000)" fill="#5B5B5F">
            <path d="M20.1942038,27.6852818 L21.0647406,26.1116192 C19.7700962,25.1741181 19.000006,23.6674199 19.000006,22.0714358 C19.000006,21.1897383 19.2343812,20.3192016 19.6808103,19.5602721 C17.9397368,20.4531303 16.4888423,21.859382 15.4285731,23.5000089 C16.5892888,25.2968861 18.2299158,26.8035843 20.1942038,27.6852818 Z M24.5357268,19.2142895 C24.5357268,18.9241106 24.2901908,18.6785746 24.0000119,18.6785746 C22.1361704,18.6785746 20.6071507,20.2075943 20.6071507,22.0714358 C20.6071507,22.3616147 20.8526867,22.6071507 21.1428657,22.6071507 C21.4330446,22.6071507 21.6785806,22.3616147 21.6785806,22.0714358 C21.6785806,20.7879521 22.727689,19.7500045 24.0000119,19.7500045 C24.2901908,19.7500045 24.5357268,19.5044685 24.5357268,19.2142895 Z M28.587071,17.0825906 C28.587071,17.104912 28.587071,17.1607157 28.5759102,17.1830371 C26.2209967,21.3906314 23.8884046,25.6205472 21.5334911,29.8281415 L20.9866155,30.8214462 C20.9196511,30.9330535 20.7968831,31.0000179 20.6741151,31.0000179 C20.473222,31.0000179 19.4129529,30.3526957 19.1785776,30.218767 C19.0669703,30.1518026 19.000006,30.0401953 19.000006,29.9062666 C19.000006,29.7276949 19.3794707,29.1250156 19.491078,28.9352833 C17.3258968,27.9531392 15.5066982,26.2790301 14.2232146,24.2700991 C14.0781251,24.0468846 14,23.7790271 14,23.5000089 C14,23.2321515 14.0781251,22.9531333 14.2232146,22.7299187 C16.4330386,19.3370575 19.8817034,17.0714298 24.0000119,17.0714298 C24.6696556,17.0714298 25.35046,17.1383942 26.0089429,17.2611622 L26.6116222,16.1785716 C26.6785865,16.0669644 26.7901938,16 26.9241225,16 C27.1250156,16 28.174124,16.6473222 28.4084993,16.7812509 C28.5201066,16.8482153 28.587071,16.9598226 28.587071,17.0825906 Z M29.0000179,22.0714358 C29.0000179,24.1473311 27.7165342,26.0000119 25.7857283,26.7366199 L28.9107321,21.1339347 C28.9665357,21.4464351 29.0000179,21.7589354 29.0000179,22.0714358 Z M34.0000238,23.5000089 C34.0000238,23.7901879 33.9218987,24.0245631 33.7768093,24.2700991 C33.4308267,24.8392963 32.9955584,25.3861719 32.56029,25.8884046 C30.3727874,28.3995684 27.3593909,29.928588 24.0000119,29.928588 L24.8259058,28.455372 C28.0736775,28.1763538 30.8303772,26.200905 32.5714507,23.5000089 C31.7455569,22.2165253 30.6852877,21.0892918 29.4241255,20.218755 L30.1272514,18.9687535 C31.5111816,19.8950939 32.9062725,21.2901849 33.7768093,22.7299187 C33.9218987,22.9754547 34.0000238,23.20983 34.0000238,23.5000089 Z" id="eye-slash---FontAwesome"></path>
        </g>
    </g>
</svg>