<?xml version="1.0" encoding="UTF-8"?>
<svg width="20px" height="13px" viewBox="0 0 20 13" version="1.1" xmlns="http://www.w3.org/2000/svg" xmlns:xlink="http://www.w3.org/1999/xlink">
    <!-- Generator: Sketch 49.3 (51167) - http://www.bohemiancoding.com/sketch -->
    <title>eye - FontAwesome</title>
    <desc>Created with Sketch.</desc>
    <defs></defs>
    <g id="👌-Symbols" stroke="none" stroke-width="1" fill="none" fill-rule="evenodd">
        <g id="icon/eye-open/dark" transform="translate(-14.000000, -18.000000)" fill="#5B5B5F">
            <path d="M32.5714507,24.4285791 C31.5111816,22.7879521 30.060287,21.3817005 28.3192135,20.4888423 C28.7656426,21.2477717 29.0000179,22.1183085 29.0000179,23.000006 C29.0000179,25.7567057 26.7567116,28.0000119 24.0000119,28.0000119 C21.2433122,28.0000119 19.000006,25.7567057 19.000006,23.000006 C19.000006,22.1183085 19.2343812,21.2477717 19.6808103,20.4888423 C17.9397368,21.3817005 16.4888423,22.7879521 15.4285731,24.4285791 C17.3370575,27.3750112 20.4174184,29.4285851 24.0000119,29.4285851 C27.5826055,29.4285851 30.6629663,27.3750112 32.5714507,24.4285791 Z M24.5357268,20.1428597 C24.5357268,19.8526808 24.2901908,19.6071448 24.0000119,19.6071448 C22.1361704,19.6071448 20.6071507,21.1361645 20.6071507,23.000006 C20.6071507,23.2901849 20.8526867,23.5357209 21.1428657,23.5357209 C21.4330446,23.5357209 21.6785806,23.2901849 21.6785806,23.000006 C21.6785806,21.727683 22.727689,20.6785746 24.0000119,20.6785746 C24.2901908,20.6785746 24.5357268,20.4330386 24.5357268,20.1428597 Z M34.0000238,24.4285791 C34.0000238,24.7075973 33.910738,24.964294 33.7768093,25.1986693 C31.7232354,28.5803698 27.9620702,30.8571582 24.0000119,30.8571582 C20.0379536,30.8571582 16.2767884,28.569209 14.2232146,25.1986693 C14.0892858,24.964294 14,24.7075973 14,24.4285791 C14,24.1495609 14.0892858,23.8928642 14.2232146,23.6584889 C16.2767884,20.2879492 20.0379536,18 24.0000119,18 C27.9620702,18 31.7232354,20.2879492 33.7768093,23.6584889 C33.910738,23.8928642 34.0000238,24.1495609 34.0000238,24.4285791 Z" id="eye---FontAwesome"></path>
        </g>
    </g>
</svg>