<?xml version="1.0" encoding="UTF-8"?>
<svg width="21px" height="21px" viewBox="0 0 21 21" version="1.1" xmlns="http://www.w3.org/2000/svg" xmlns:xlink="http://www.w3.org/1999/xlink">
    <!-- Generator: Sketch 49.3 (51167) - http://www.bohemiancoding.com/sketch -->
    <title>Check Circle - FontAwesome</title>
    <desc>Created with Sketch.</desc>
    <defs></defs>
    <g id="✅12-notificaciones" stroke="none" stroke-width="1" fill="none" fill-rule="evenodd">
        <g id="Notificaciones" transform="translate(-1785.000000, -1537.000000)" fill="#58595B">
            <g id="satisfactorio" transform="translate(1682.000000, 1502.000000)">
                <path d="M119.835781,42.9458591 C119.835781,42.7229555 119.757109,42.5000519 119.599765,42.3427081 L118.406575,41.16263 C118.249231,41.0052863 118.03944,40.9135024 117.816536,40.9135024 C117.593632,40.9135024 117.383841,41.0052863 117.226497,41.16263 L111.87681,46.4992054 L108.913502,43.5358982 C108.756159,43.3785544 108.546367,43.2867706 108.323463,43.2867706 C108.10056,43.2867706 107.890768,43.3785544 107.733424,43.5358982 L106.540234,44.7159763 C106.382891,44.87332 106.304219,45.0962237 106.304219,45.3191273 C106.304219,45.5420309 106.382891,45.7518226 106.540234,45.9091663 L111.286771,50.6557027 C111.444114,50.8130464 111.667018,50.9048302 111.87681,50.9048302 C112.099713,50.9048302 112.322617,50.8130464 112.479961,50.6557027 L119.599765,43.5358982 C119.757109,43.3785544 119.835781,43.1687628 119.835781,42.9458591 Z M123.139999,45.0699997 C123.139999,50.6294787 118.629479,55.1399994 113.07,55.1399994 C107.510521,55.1399994 103,50.6294787 103,45.0699997 C103,39.5105207 107.510521,35 113.07,35 C118.629479,35 123.139999,39.5105207 123.139999,45.0699997 Z" id="Check-Circle---FontAwesome"></path>
            </g>
        </g>
    </g>
</svg>