<?xml version="1.0" encoding="UTF-8"?>
<svg width="667px" height="72px" viewBox="0 0 667 72" version="1.1" xmlns="http://www.w3.org/2000/svg" xmlns:xlink="http://www.w3.org/1999/xlink">
    <!-- Generator: Sketch 49.3 (51167) - http://www.bohemiancoding.com/sketch -->
    <title>progress-bar</title>
    <desc>Created with Sketch.</desc>
    <defs>
        <rect id="path-1" x="0" y="0" width="30" height="30" rx="15"></rect>
        <rect id="path-2" x="31" y="4" width="30" height="30" rx="15"></rect>
        <rect id="path-3" x="31" y="4" width="30" height="30" rx="15"></rect>
        <rect id="path-4" x="31" y="4" width="30" height="30" rx="15"></rect>
        <rect id="path-5" x="31" y="4" width="30" height="30" rx="15"></rect>
        <rect id="path-6" x="31" y="4" width="30" height="30" rx="15"></rect>
    </defs>
    <g id="✅-07-finalizado" stroke="none" stroke-width="1" fill="none" fill-rule="evenodd">
        <g id="Finalizado---Large-Device-Desktops" transform="translate(-267.000000, -119.000000)">
            <g id="progress-bar/desktop" transform="translate(216.000000, 116.000000)">
                <g id="progress-bar/desktop/right/state/filled" transform="translate(580.000000, -1.000000)">
                    <g id="Group" stroke-width="1" fill-rule="evenodd" transform="translate(59.000000, 19.000000) scale(-1, 1) translate(-59.000000, -19.000000) translate(-1.000000, 4.000000)">
                        <path d="M27,15 L119.5,15" id="Line-2" stroke="#00448D" stroke-linecap="square"></path>
                        <g id="Rectangle-7">
                            <use fill="#00448D" fill-rule="evenodd" xlink:href="#path-1"></use>
                            <rect stroke="#00448D" stroke-width="1" x="0.5" y="0.5" width="29" height="29" rx="14.5"></rect>
                        </g>
                        <path d="M23.6495758,11.1740942 C23.6495758,11.4531124 23.5379685,11.7321306 23.3370754,11.9330237 L13.7388497,21.5312494 C13.5379566,21.7321425 13.2589384,21.8437498 12.9799202,21.8437498 C12.700902,21.8437498 12.4218838,21.7321425 12.2209908,21.5312494 L6.66294841,15.9732071 C6.46205531,15.772314 6.35044804,15.4932958 6.35044804,15.2142776 C6.35044804,14.9352594 6.46205531,14.6562412 6.66294841,14.4553481 L8.18080736,12.9374892 C8.38170046,12.7365961 8.66071865,12.6249888 8.93973684,12.6249888 C9.21875503,12.6249888 9.49777322,12.7365961 9.69866632,12.9374892 L12.9799202,16.2299038 L20.3013575,8.89730581 C20.5022506,8.69641271 20.7812688,8.58480544 21.060287,8.58480544 C21.3393052,8.58480544 21.6183234,8.69641271 21.8192165,8.89730581 L23.3370754,10.4151648 C23.5379685,10.6160579 23.6495758,10.895076 23.6495758,11.1740942 Z" id="Check---FontAwesome" fill="#FFFFFF" transform="translate(15.000012, 15.214278) scale(-1, 1) translate(-15.000012, -15.214278) "></path>
                    </g>
                    <text id="Text" font-family="Arimo" font-size="14" font-weight="normal" fill="#00448D">
                        <tspan x="74.5932617" y="57">Finalizado</tspan>
                    </text>
                </g>
                <g id="progress-bar/desktop/left/state/filled" transform="translate(519.000000, -1.000000)">
                    <path d="M58,19 L150.5,19" id="Line-2" stroke="#00448D" stroke-width="1" stroke-linecap="square"></path>
                    <g id="Rectangle-7">
                        <use fill="#00448D" fill-rule="evenodd" xlink:href="#path-2"></use>
                        <rect stroke="#00448D" stroke-width="1" x="31.5" y="4.5" width="29" height="29" rx="14.5"></rect>
                    </g>
                    <path d="M54.6495758,15.1740942 C54.6495758,15.4531124 54.5379685,15.7321306 54.3370754,15.9330237 L44.7388497,25.5312494 C44.5379566,25.7321425 44.2589384,25.8437498 43.9799202,25.8437498 C43.700902,25.8437498 43.4218838,25.7321425 43.2209908,25.5312494 L37.6629484,19.9732071 C37.4620553,19.772314 37.350448,19.4932958 37.350448,19.2142776 C37.350448,18.9352594 37.4620553,18.6562412 37.6629484,18.4553481 L39.1808074,16.9374892 C39.3817005,16.7365961 39.6607186,16.6249888 39.9397368,16.6249888 C40.218755,16.6249888 40.4977732,16.7365961 40.6986663,16.9374892 L43.9799202,20.2299038 L51.3013575,12.8973058 C51.5022506,12.6964127 51.7812688,12.5848054 52.060287,12.5848054 C52.3393052,12.5848054 52.6183234,12.6964127 52.8192165,12.8973058 L54.3370754,14.4151648 C54.5379685,14.6160579 54.6495758,14.895076 54.6495758,15.1740942 Z" id="Check---FontAwesome" fill="#FFFFFF" fill-rule="evenodd"></path>
                    <text id="Text" font-family="Arimo" font-size="14" font-weight="normal" fill="#00448D">
                        <tspan x="20.1518555" y="57">Ingresa </tspan>
                        <tspan x="8.86572266" y="73">contraseña</tspan>
                    </text>
                </g>
                <g id="progress-bar/desktop/left/state/filled" transform="translate(399.000000, -1.000000)">
                    <path d="M58,19 L150.5,19" id="Line-2" stroke="#00448D" stroke-width="1" stroke-linecap="square"></path>
                    <g id="Rectangle-7">
                        <use fill="#00448D" fill-rule="evenodd" xlink:href="#path-3"></use>
                        <rect stroke="#00448D" stroke-width="1" x="31.5" y="4.5" width="29" height="29" rx="14.5"></rect>
                    </g>
                    <path d="M54.6495758,15.1740942 C54.6495758,15.4531124 54.5379685,15.7321306 54.3370754,15.9330237 L44.7388497,25.5312494 C44.5379566,25.7321425 44.2589384,25.8437498 43.9799202,25.8437498 C43.700902,25.8437498 43.4218838,25.7321425 43.2209908,25.5312494 L37.6629484,19.9732071 C37.4620553,19.772314 37.350448,19.4932958 37.350448,19.2142776 C37.350448,18.9352594 37.4620553,18.6562412 37.6629484,18.4553481 L39.1808074,16.9374892 C39.3817005,16.7365961 39.6607186,16.6249888 39.9397368,16.6249888 C40.218755,16.6249888 40.4977732,16.7365961 40.6986663,16.9374892 L43.9799202,20.2299038 L51.3013575,12.8973058 C51.5022506,12.6964127 51.7812688,12.5848054 52.060287,12.5848054 C52.3393052,12.5848054 52.6183234,12.6964127 52.8192165,12.8973058 L54.3370754,14.4151648 C54.5379685,14.6160579 54.6495758,14.895076 54.6495758,15.1740942 Z" id="Check---FontAwesome" fill="#FFFFFF" fill-rule="evenodd"></path>
                    <text id="Text" font-family="Arimo" font-size="14" font-weight="normal" fill="#00448D">
                        <tspan x="2.25537109" y="57">Válida correo </tspan>
                        <tspan x="13.1450195" y="73">y teléfono</tspan>
                    </text>
                </g>
                <g id="progress-bar/desktop/left/state/filled" transform="translate(279.000000, -1.000000)">
                    <path d="M58,19 L150.5,19" id="Line-2" stroke="#00448D" stroke-width="1" stroke-linecap="square"></path>
                    <g id="Rectangle-7">
                        <use fill="#00448D" fill-rule="evenodd" xlink:href="#path-4"></use>
                        <rect stroke="#00448D" stroke-width="1" x="31.5" y="4.5" width="29" height="29" rx="14.5"></rect>
                    </g>
                    <path d="M54.6495758,15.1740942 C54.6495758,15.4531124 54.5379685,15.7321306 54.3370754,15.9330237 L44.7388497,25.5312494 C44.5379566,25.7321425 44.2589384,25.8437498 43.9799202,25.8437498 C43.700902,25.8437498 43.4218838,25.7321425 43.2209908,25.5312494 L37.6629484,19.9732071 C37.4620553,19.772314 37.350448,19.4932958 37.350448,19.2142776 C37.350448,18.9352594 37.4620553,18.6562412 37.6629484,18.4553481 L39.1808074,16.9374892 C39.3817005,16.7365961 39.6607186,16.6249888 39.9397368,16.6249888 C40.218755,16.6249888 40.4977732,16.7365961 40.6986663,16.9374892 L43.9799202,20.2299038 L51.3013575,12.8973058 C51.5022506,12.6964127 51.7812688,12.5848054 52.060287,12.5848054 C52.3393052,12.5848054 52.6183234,12.6964127 52.8192165,12.8973058 L54.3370754,14.4151648 C54.5379685,14.6160579 54.6495758,14.895076 54.6495758,15.1740942 Z" id="Check---FontAwesome" fill="#FFFFFF" fill-rule="evenodd"></path>
                    <text id="Text" font-family="Arimo" font-size="14" font-weight="normal" fill="#00448D">
                        <tspan x="1.85888672" y="57">Preguntas de </tspan>
                        <tspan x="12.7553711" y="73">seguridad</tspan>
                    </text>
                </g>
                <g id="progress-bar/desktop/left/state/filled" transform="translate(159.000000, -1.000000)">
                    <path d="M58,19 L150.5,19" id="Line-2" stroke="#00448D" stroke-width="1" stroke-linecap="square"></path>
                    <g id="Rectangle-7">
                        <use fill="#00448D" fill-rule="evenodd" xlink:href="#path-5"></use>
                        <rect stroke="#00448D" stroke-width="1" x="31.5" y="4.5" width="29" height="29" rx="14.5"></rect>
                    </g>
                    <path d="M54.6495758,15.1740942 C54.6495758,15.4531124 54.5379685,15.7321306 54.3370754,15.9330237 L44.7388497,25.5312494 C44.5379566,25.7321425 44.2589384,25.8437498 43.9799202,25.8437498 C43.700902,25.8437498 43.4218838,25.7321425 43.2209908,25.5312494 L37.6629484,19.9732071 C37.4620553,19.772314 37.350448,19.4932958 37.350448,19.2142776 C37.350448,18.9352594 37.4620553,18.6562412 37.6629484,18.4553481 L39.1808074,16.9374892 C39.3817005,16.7365961 39.6607186,16.6249888 39.9397368,16.6249888 C40.218755,16.6249888 40.4977732,16.7365961 40.6986663,16.9374892 L43.9799202,20.2299038 L51.3013575,12.8973058 C51.5022506,12.6964127 51.7812688,12.5848054 52.060287,12.5848054 C52.3393052,12.5848054 52.6183234,12.6964127 52.8192165,12.8973058 L54.3370754,14.4151648 C54.5379685,14.6160579 54.6495758,14.895076 54.6495758,15.1740942 Z" id="Check---FontAwesome" fill="#FFFFFF" fill-rule="evenodd"></path>
                    <text id="Text" font-family="Arimo" font-size="14" font-weight="normal" fill="#00448D">
                        <tspan x="8.8828125" y="57">Términos y </tspan>
                        <tspan x="6.53125" y="73">condiciones</tspan>
                    </text>
                </g>
                <g id="progress-bar/desktop/left/state/filled" transform="translate(39.000000, 0.000000)">
                    <path d="M58,19 L150.5,19" id="Line-2" stroke="#00448D" stroke-width="1" stroke-linecap="square"></path>
                    <g id="Rectangle-7">
                        <use fill="#00448D" fill-rule="evenodd" xlink:href="#path-6"></use>
                        <rect stroke="#00448D" stroke-width="1" x="31.5" y="4.5" width="29" height="29" rx="14.5"></rect>
                    </g>
                    <path d="M54.6495758,15.1740942 C54.6495758,15.4531124 54.5379685,15.7321306 54.3370754,15.9330237 L44.7388497,25.5312494 C44.5379566,25.7321425 44.2589384,25.8437498 43.9799202,25.8437498 C43.700902,25.8437498 43.4218838,25.7321425 43.2209908,25.5312494 L37.6629484,19.9732071 C37.4620553,19.772314 37.350448,19.4932958 37.350448,19.2142776 C37.350448,18.9352594 37.4620553,18.6562412 37.6629484,18.4553481 L39.1808074,16.9374892 C39.3817005,16.7365961 39.6607186,16.6249888 39.9397368,16.6249888 C40.218755,16.6249888 40.4977732,16.7365961 40.6986663,16.9374892 L43.9799202,20.2299038 L51.3013575,12.8973058 C51.5022506,12.6964127 51.7812688,12.5848054 52.060287,12.5848054 C52.3393052,12.5848054 52.6183234,12.6964127 52.8192165,12.8973058 L54.3370754,14.4151648 C54.5379685,14.6160579 54.6495758,14.895076 54.6495758,15.1740942 Z" id="Check---FontAwesome" fill="#FFFFFF" fill-rule="evenodd"></path>
                    <text id="Text" font-family="Arimo" font-size="14" font-weight="normal" fill="#00448D">
                        <tspan x="11.2070312" y="57">Ingresa ID</tspan>
                    </text>
                </g>
            </g>
        </g>
    </g>
</svg>